# Blender v2.79 (sub 0) OBJ File: 'conga.blend'
# www.blender.org
mtllib conga.mtl
o Circle
v -0.000000 0.000000 -0.680472
v -0.132753 0.000000 -0.667397
v -0.260405 0.000000 -0.628674
v -0.378050 0.000000 -0.565792
v -0.481166 0.000000 -0.481166
v -0.565792 0.000000 -0.378050
v -0.628674 0.000000 -0.260405
v -0.667397 0.000000 -0.132754
v -0.680472 0.000000 -0.000000
v -0.667397 0.000000 0.132753
v -0.628674 0.000000 0.260405
v -0.565792 0.000000 0.378050
v -0.481166 0.000000 0.481166
v -0.378050 0.000000 0.565792
v -0.260405 0.000000 0.628674
v -0.132753 0.000000 0.667397
v 0.000000 0.000000 0.680472
v 0.132754 0.000000 0.667397
v 0.260406 0.000000 0.628674
v 0.378050 0.000000 0.565791
v 0.481166 0.000000 0.481166
v 0.565792 0.000000 0.378049
v 0.628674 0.000000 0.260405
v 0.667397 0.000000 0.132753
v 0.680472 0.000000 -0.000001
v 0.667397 0.000000 -0.132754
v 0.628674 0.000000 -0.260406
v 0.565791 0.000000 -0.378051
v 0.481166 0.000000 -0.481167
v 0.378049 0.000000 -0.565792
v 0.260404 0.000000 -0.628674
v 0.132752 0.000000 -0.667397
v 0.000000 3.851712 -1.061497
v -0.207088 3.851712 -1.041100
v -0.406217 3.851712 -0.980695
v -0.589736 3.851712 -0.882602
v -0.750592 3.851712 -0.750592
v -0.882602 3.851712 -0.589736
v -0.980695 3.851712 -0.406217
v -1.041100 3.851712 -0.207088
v -1.061497 3.851712 -0.000000
v -1.041100 3.851712 0.207088
v -0.980695 3.851712 0.406217
v -0.882602 3.851712 0.589736
v -0.750592 3.851712 0.750592
v -0.589736 3.851712 0.882602
v -0.406217 3.851712 0.980695
v -0.207087 3.851712 1.041101
v 0.000000 3.851712 1.061497
v 0.207088 3.851712 1.041100
v 0.406218 3.851712 0.980695
v 0.589737 3.851712 0.882602
v 0.750592 3.851712 0.750591
v 0.882603 3.851712 0.589735
v 0.980695 3.851712 0.406216
v 1.041101 3.851712 0.207087
v 1.061497 3.851712 -0.000001
v 1.041100 3.851712 -0.207089
v 0.980695 3.851712 -0.406218
v 0.882602 3.851712 -0.589737
v 0.750591 3.851712 -0.750592
v 0.589735 3.851712 -0.882603
v 0.406216 3.851712 -0.980696
v 0.207086 3.851712 -1.041101
v 0.533526 1.179555 0.798476
v 0.679049 1.179555 0.679048
v -0.887220 1.179555 -0.367498
v -0.941868 1.179555 -0.187349
v 0.798477 1.179555 0.533525
v -0.960320 1.179555 -0.000000
v 0.887220 1.179555 0.367498
v -0.941868 1.179555 0.187349
v 0.941868 1.179555 0.187348
v -0.887220 1.179555 0.367498
v 0.960320 1.179555 -0.000001
v -0.798477 1.179555 0.533525
v 0.941867 1.179555 -0.187350
v -0.679049 1.179555 0.679049
v 0.887219 1.179555 -0.367499
v -0.533525 1.179555 0.798477
v 0.798476 1.179555 -0.533526
v -0.367498 1.179555 0.887220
v -0.000000 1.179555 -0.960320
v -0.187349 1.179555 -0.941867
v 0.679048 1.179555 -0.679049
v -0.187349 1.179555 0.941868
v -0.367499 1.179555 -0.887220
v 0.533524 1.179555 -0.798477
v 0.000000 1.179555 0.960320
v -0.533525 1.179555 -0.798477
v 0.367497 1.179555 -0.887220
v 0.187349 1.179555 0.941867
v -0.679049 1.179555 -0.679049
v 0.187348 1.179555 -0.941868
v 0.367499 1.179555 0.887220
v -0.798477 1.179555 -0.533525
v 0.624192 3.136919 0.934168
v -1.037993 3.136919 -0.429951
v 0.000000 3.136919 -1.123515
v 0.794446 3.136919 0.794445
v -1.101927 3.136919 -0.219187
v 0.934169 3.136919 0.624191
v -1.123515 3.136919 -0.000000
v 1.037993 3.136919 0.429950
v -1.101927 3.136919 0.219187
v 1.101927 3.136919 0.219186
v -1.037993 3.136919 0.429951
v 1.123515 3.136919 -0.000001
v -0.934169 3.136919 0.624192
v 1.101927 3.136919 -0.219188
v -0.794445 3.136919 0.794445
v 1.037992 3.136919 -0.429952
v -0.624192 3.136919 0.934169
v 0.934168 3.136919 -0.624193
v -0.429951 3.136919 1.037993
v -0.219187 3.136919 -1.101927
v 0.794444 3.136919 -0.794446
v -0.219187 3.136919 1.101927
v -0.429951 3.136919 -1.037993
v 0.624190 3.136919 -0.934170
v 0.000000 3.136919 1.123515
v -0.624192 3.136919 -0.934169
v 0.429949 3.136919 -1.037993
v 0.219187 3.136919 1.101927
v -0.794445 3.136919 -0.794445
v 0.219185 3.136919 -1.101928
v 0.429951 3.136919 1.037993
v -0.934169 3.136919 -0.624192
v 0.000000 3.890435 -1.117662
v -0.218045 3.890435 -1.096187
v -0.427711 3.890435 -1.032585
v -0.620940 3.890435 -0.929302
v -0.790307 3.890435 -0.790307
v -0.929302 3.890435 -0.620940
v -1.032585 3.890435 -0.427711
v -1.096187 3.890435 -0.218045
v -1.117662 3.890435 -0.000000
v -1.096187 3.890435 0.218045
v -1.032585 3.890435 0.427711
v -0.929302 3.890435 0.620940
v -0.790307 3.890435 0.790307
v -0.620940 3.890435 0.929302
v -0.427711 3.890435 1.032585
v -0.218045 3.890435 1.096187
v 0.000000 3.890435 1.117662
v 0.218046 3.890435 1.096187
v 0.427711 3.890435 1.032585
v 0.620940 3.890435 0.929302
v 0.790307 3.890435 0.790306
v 0.929303 3.890435 0.620939
v 1.032586 3.890435 0.427710
v 1.096187 3.890435 0.218044
v 1.117662 3.890435 -0.000001
v 1.096187 3.890435 -0.218046
v 1.032585 3.890435 -0.427712
v 0.929301 3.890435 -0.620941
v 0.790306 3.890435 -0.790308
v 0.620939 3.890435 -0.929303
v 0.427709 3.890435 -1.032586
v 0.218043 3.890435 -1.096187
v 0.000000 4.032421 -1.117662
v -0.218045 4.032421 -1.096187
v -0.427711 4.032421 -1.032585
v -0.620940 4.032421 -0.929302
v -0.790307 4.032421 -0.790307
v -0.929302 4.032421 -0.620940
v -1.032585 4.032421 -0.427711
v -1.096187 4.032421 -0.218045
v -1.117662 4.032421 -0.000000
v -1.096187 4.032421 0.218045
v -1.032585 4.032421 0.427711
v -0.929302 4.032421 0.620940
v -0.790307 4.032421 0.790307
v -0.620940 4.032421 0.929302
v -0.427711 4.032421 1.032585
v -0.218045 4.032421 1.096187
v 0.000000 4.032421 1.117662
v 0.218046 4.032421 1.096187
v 0.427711 4.032421 1.032585
v 0.620940 4.032421 0.929302
v 0.790307 4.032421 0.790306
v 0.929303 4.032421 0.620939
v 1.032586 4.032421 0.427710
v 1.096187 4.032421 0.218044
v 1.117662 4.032421 -0.000001
v 1.096187 4.032421 -0.218046
v 1.032585 4.032421 -0.427712
v 0.929301 4.032421 -0.620941
v 0.790306 4.032421 -0.790308
v 0.620939 4.032421 -0.929303
v 0.427709 4.032421 -1.032586
v 0.218043 4.032421 -1.096187
v -0.000000 4.071146 -0.000000
vn 0.7071 0.0016 0.7071
vn 0.6354 -0.4388 0.6354
vn 0.4992 -0.4388 0.7471
vn 0.5556 0.0016 0.8314
vn -0.9808 0.0016 -0.1951
vn -0.8813 -0.4388 -0.1753
vn -0.8302 -0.4388 -0.3439
vn -0.9239 0.0016 -0.3827
vn 0.8314 0.0016 0.5556
vn 0.7471 -0.4388 0.4992
vn -1.0000 0.0016 0.0000
vn -0.8986 -0.4388 0.0000
vn 0.9239 0.0016 0.3827
vn 0.8302 -0.4388 0.3439
vn -0.9808 0.0016 0.1951
vn -0.8813 -0.4388 0.1753
vn 0.9808 0.0016 0.1951
vn 0.8813 -0.4388 0.1753
vn -0.9239 0.0016 0.3827
vn -0.8302 -0.4388 0.3439
vn 1.0000 0.0016 0.0000
vn 0.8986 -0.4388 0.0000
vn -0.8314 0.0016 0.5556
vn -0.7471 -0.4388 0.4992
vn 0.9808 0.0016 -0.1951
vn 0.8813 -0.4388 -0.1753
vn -0.7071 0.0016 0.7071
vn -0.6354 -0.4388 0.6354
vn 0.9239 0.0016 -0.3827
vn 0.8302 -0.4388 -0.3439
vn -0.5556 0.0016 0.8314
vn -0.4992 -0.4388 0.7471
vn 0.8314 0.0016 -0.5556
vn 0.7471 -0.4388 -0.4992
vn -0.3827 0.0016 0.9239
vn -0.3439 -0.4388 0.8302
vn -0.1951 0.0016 -0.9808
vn -0.1753 -0.4388 -0.8813
vn 0.0000 -0.4388 -0.8986
vn 0.0000 0.0016 -1.0000
vn 0.7071 0.0016 -0.7071
vn 0.6354 -0.4388 -0.6354
vn -0.1951 0.0016 0.9808
vn -0.1753 -0.4388 0.8813
vn -0.3827 0.0016 -0.9239
vn -0.3439 -0.4388 -0.8302
vn 0.5556 0.0016 -0.8314
vn 0.4992 -0.4388 -0.7471
vn 0.0000 0.0016 1.0000
vn 0.0000 -0.4388 0.8986
vn -0.5556 0.0016 -0.8314
vn -0.4992 -0.4388 -0.7471
vn 0.3827 0.0016 -0.9239
vn 0.3439 -0.4388 -0.8302
vn 0.1951 0.0016 0.9808
vn 0.1753 -0.4388 0.8813
vn -0.7071 0.0016 -0.7071
vn -0.6354 -0.4388 -0.6354
vn 0.1951 0.0016 -0.9808
vn 0.1753 -0.4388 -0.8813
vn 0.3827 0.0016 0.9239
vn 0.3439 -0.4388 0.8302
vn -0.8314 0.0016 -0.5556
vn -0.7471 -0.4388 -0.4992
vn -0.8989 -0.2308 -0.3723
vn -0.9124 -0.1567 -0.3779
vn -0.8212 -0.1567 -0.5487
vn -0.8090 -0.2308 -0.5405
vn 0.5405 -0.2308 0.8090
vn 0.5487 -0.1567 0.8212
vn 0.3779 -0.1567 0.9124
vn 0.3723 -0.2308 0.8989
vn 0.0000 -0.2308 -0.9730
vn 0.0000 -0.1567 -0.9876
vn 0.1927 -0.1567 -0.9687
vn 0.1898 -0.2308 -0.9543
vn -0.6984 -0.1567 -0.6984
vn -0.6880 -0.2308 -0.6880
vn 0.1927 -0.1567 0.9687
vn 0.1898 -0.2308 0.9543
vn 0.3779 -0.1567 -0.9124
vn 0.3723 -0.2308 -0.8989
vn -0.5487 -0.1567 -0.8212
vn -0.5405 -0.2308 -0.8090
vn 0.0000 -0.1567 0.9876
vn 0.0000 -0.2308 0.9730
vn 0.5487 -0.1567 -0.8212
vn 0.5405 -0.2308 -0.8090
vn -0.3779 -0.1567 -0.9124
vn -0.3723 -0.2308 -0.8989
vn -0.1927 -0.1567 0.9687
vn -0.1898 -0.2308 0.9543
vn 0.6984 -0.1567 -0.6984
vn 0.6880 -0.2308 -0.6880
vn -0.1927 -0.1567 -0.9687
vn -0.1898 -0.2308 -0.9543
vn -0.3779 -0.1567 0.9124
vn -0.3723 -0.2308 0.8989
vn 0.8212 -0.1567 -0.5487
vn 0.8090 -0.2308 -0.5405
vn -0.5487 -0.1567 0.8212
vn -0.5405 -0.2308 0.8090
vn 0.9124 -0.1567 -0.3779
vn 0.8989 -0.2308 -0.3723
vn -0.6984 -0.1567 0.6984
vn -0.6880 -0.2308 0.6880
vn 0.9687 -0.1567 -0.1927
vn 0.9543 -0.2308 -0.1898
vn -0.8212 -0.1567 0.5487
vn -0.8090 -0.2308 0.5405
vn 0.9876 -0.1567 0.0000
vn 0.9730 -0.2308 0.0000
vn -0.9124 -0.1567 0.3779
vn -0.8989 -0.2308 0.3723
vn 0.9687 -0.1567 0.1927
vn 0.9543 -0.2308 0.1898
vn -0.9687 -0.1567 0.1927
vn -0.9543 -0.2308 0.1898
vn 0.9124 -0.1567 0.3779
vn 0.8989 -0.2308 0.3723
vn -0.9876 -0.1567 0.0000
vn -0.9730 -0.2308 0.0000
vn 0.8212 -0.1567 0.5487
vn 0.8090 -0.2308 0.5405
vn -0.9687 -0.1567 -0.1927
vn -0.9543 -0.2308 -0.1898
vn 0.6984 -0.1567 0.6984
vn 0.6880 -0.2308 0.6880
vn 0.3411 -0.4534 0.8235
vn 0.1739 -0.4534 0.8742
vn -0.7411 -0.4534 -0.4952
vn -0.6302 -0.4534 -0.6302
vn 0.0000 -0.4534 -0.8913
vn 0.1739 -0.4534 -0.8742
vn 0.4952 -0.4534 0.7411
vn -0.8235 -0.4534 -0.3411
vn 0.6302 -0.4534 0.6302
vn -0.8742 -0.4534 -0.1739
vn 0.7411 -0.4534 0.4952
vn -0.8913 -0.4534 0.0000
vn 0.8235 -0.4534 0.3411
vn -0.8742 -0.4534 0.1739
vn 0.8742 -0.4534 0.1739
vn -0.8235 -0.4534 0.3411
vn 0.8913 -0.4534 0.0000
vn -0.7411 -0.4534 0.4952
vn 0.8742 -0.4534 -0.1739
vn -0.6302 -0.4534 0.6302
vn 0.8235 -0.4534 -0.3411
vn -0.4952 -0.4534 0.7411
vn 0.7411 -0.4534 -0.4952
vn -0.3411 -0.4534 0.8235
vn -0.1739 -0.4534 -0.8742
vn 0.6302 -0.4534 -0.6302
vn -0.1739 -0.4534 0.8742
vn -0.3411 -0.4534 -0.8235
vn 0.4952 -0.4534 -0.7411
vn 0.0000 -0.4534 0.8913
vn -0.4952 -0.4534 -0.7411
vn 0.3411 -0.4534 -0.8235
vn 0.6144 0.6737 -0.4105
vn 0.6827 0.6737 -0.2828
vn -0.2828 0.6737 0.6827
vn -0.4105 0.6737 0.6144
vn -0.1441 0.6737 -0.7248
vn 0.0000 0.6737 -0.7389
vn 0.5225 0.6737 -0.5225
vn -0.1441 0.6737 0.7248
vn -0.2828 0.6737 -0.6827
vn 0.4105 0.6737 -0.6144
vn 0.0000 0.6737 0.7389
vn -0.4105 0.6737 -0.6144
vn 0.2828 0.6737 -0.6827
vn 0.1441 0.6737 0.7248
vn -0.5225 0.6737 -0.5225
vn 0.1441 0.6737 -0.7248
vn 0.2828 0.6737 0.6827
vn -0.6144 0.6737 -0.4105
vn 0.4105 0.6737 0.6144
vn -0.6827 0.6737 -0.2828
vn 0.5225 0.6737 0.5225
vn -0.7248 0.6737 -0.1441
vn 0.6144 0.6737 0.4105
vn -0.7389 0.6737 0.0000
vn 0.6827 0.6737 0.2828
vn -0.7248 0.6737 0.1441
vn 0.7248 0.6737 0.1441
vn -0.6827 0.6737 0.2828
vn 0.7389 0.6737 0.0000
vn -0.6144 0.6737 0.4105
vn 0.7248 0.6737 -0.1441
vn -0.5225 0.6737 0.5225
vn 0.0000 1.0000 0.0000
usemtl None
s 1
f 100//1 53//2 52//3 97//4
f 101//5 40//6 39//7 98//8
f 102//9 54//10 53//2 100//1
f 103//11 41//12 40//6 101//5
f 104//13 55//14 54//10 102//9
f 105//15 42//16 41//12 103//11
f 106//17 56//18 55//14 104//13
f 107//19 43//20 42//16 105//15
f 108//21 57//22 56//18 106//17
f 109//23 44//24 43//20 107//19
f 110//25 58//26 57//22 108//21
f 111//27 45//28 44//24 109//23
f 112//29 59//30 58//26 110//25
f 113//31 46//32 45//28 111//27
f 114//33 60//34 59//30 112//29
f 115//35 47//36 46//32 113//31
f 116//37 34//38 33//39 99//40
f 117//41 61//42 60//34 114//33
f 118//43 48//44 47//36 115//35
f 119//45 35//46 34//38 116//37
f 120//47 62//48 61//42 117//41
f 121//49 49//50 48//44 118//43
f 122//51 36//52 35//46 119//45
f 123//53 63//54 62//48 120//47
f 124//55 50//56 49//50 121//49
f 125//57 37//58 36//52 122//51
f 126//59 64//60 63//54 123//53
f 127//61 51//62 50//56 124//55
f 128//63 38//64 37//58 125//57
f 99//40 33//39 64//60 126//59
f 97//4 52//3 51//62 127//61
f 98//8 39//7 38//64 128//63
f 7//65 67//66 96//67 6//68
f 20//69 65//70 95//71 19//72
f 1//73 83//74 94//75 32//76
f 6//68 96//67 93//77 5//78
f 19//72 95//71 92//79 18//80
f 32//76 94//75 91//81 31//82
f 5//78 93//77 90//83 4//84
f 18//80 92//79 89//85 17//86
f 31//82 91//81 88//87 30//88
f 4//84 90//83 87//89 3//90
f 17//86 89//85 86//91 16//92
f 30//88 88//87 85//93 29//94
f 3//90 87//89 84//95 2//96
f 16//92 86//91 82//97 15//98
f 29//94 85//93 81//99 28//100
f 2//96 84//95 83//74 1//73
f 15//98 82//97 80//101 14//102
f 28//100 81//99 79//103 27//104
f 14//102 80//101 78//105 13//106
f 27//104 79//103 77//107 26//108
f 13//106 78//105 76//109 12//110
f 26//108 77//107 75//111 25//112
f 12//110 76//109 74//113 11//114
f 25//112 75//111 73//115 24//116
f 11//114 74//113 72//117 10//118
f 24//116 73//115 71//119 23//120
f 10//118 72//117 70//121 9//122
f 23//120 71//119 69//123 22//124
f 9//122 70//121 68//125 8//126
f 22//124 69//123 66//127 21//128
f 8//126 68//125 67//66 7//65
f 21//128 66//127 65//70 20//69
f 67//66 98//8 128//63 96//67
f 65//70 97//4 127//61 95//71
f 83//74 99//40 126//59 94//75
f 96//67 128//63 125//57 93//77
f 95//71 127//61 124//55 92//79
f 94//75 126//59 123//53 91//81
f 93//77 125//57 122//51 90//83
f 92//79 124//55 121//49 89//85
f 91//81 123//53 120//47 88//87
f 90//83 122//51 119//45 87//89
f 89//85 121//49 118//43 86//91
f 88//87 120//47 117//41 85//93
f 87//89 119//45 116//37 84//95
f 86//91 118//43 115//35 82//97
f 85//93 117//41 114//33 81//99
f 84//95 116//37 99//40 83//74
f 82//97 115//35 113//31 80//101
f 81//99 114//33 112//29 79//103
f 80//101 113//31 111//27 78//105
f 79//103 112//29 110//25 77//107
f 78//105 111//27 109//23 76//109
f 77//107 110//25 108//21 75//111
f 76//109 109//23 107//19 74//113
f 75//111 108//21 106//17 73//115
f 74//113 107//19 105//15 72//117
f 73//115 106//17 104//13 71//119
f 72//117 105//15 103//11 70//121
f 71//119 104//13 102//9 69//123
f 70//121 103//11 101//5 68//125
f 69//123 102//9 100//1 66//127
f 68//125 101//5 98//8 67//66
f 66//127 100//1 97//4 65//70
f 51//62 147//129 146//130 50//56
f 38//64 134//131 133//132 37//58
f 33//39 129//133 160//134 64//60
f 52//3 148//135 147//129 51//62
f 39//7 135//136 134//131 38//64
f 53//2 149//137 148//135 52//3
f 40//6 136//138 135//136 39//7
f 54//10 150//139 149//137 53//2
f 41//12 137//140 136//138 40//6
f 55//14 151//141 150//139 54//10
f 42//16 138//142 137//140 41//12
f 56//18 152//143 151//141 55//14
f 43//20 139//144 138//142 42//16
f 57//22 153//145 152//143 56//18
f 44//24 140//146 139//144 43//20
f 58//26 154//147 153//145 57//22
f 45//28 141//148 140//146 44//24
f 59//30 155//149 154//147 58//26
f 46//32 142//150 141//148 45//28
f 60//34 156//151 155//149 59//30
f 47//36 143//152 142//150 46//32
f 34//38 130//153 129//133 33//39
f 61//42 157//154 156//151 60//34
f 48//44 144//155 143//152 47//36
f 35//46 131//156 130//153 34//38
f 62//48 158//157 157//154 61//42
f 49//50 145//158 144//155 48//44
f 36//52 132//159 131//156 35//46
f 63//54 159//160 158//157 62//48
f 50//56 146//130 145//158 49//50
f 37//58 133//132 132//159 36//52
f 64//60 160//134 159//160 63//54
f 156//151 188//161 187//162 155//149
f 143//152 175//163 174//164 142//150
f 130//153 162//165 161//166 129//133
f 157//154 189//167 188//161 156//151
f 144//155 176//168 175//163 143//152
f 131//156 163//169 162//165 130//153
f 158//157 190//170 189//167 157//154
f 145//158 177//171 176//168 144//155
f 132//159 164//172 163//169 131//156
f 159//160 191//173 190//170 158//157
f 146//130 178//174 177//171 145//158
f 133//132 165//175 164//172 132//159
f 160//134 192//176 191//173 159//160
f 147//129 179//177 178//174 146//130
f 134//131 166//178 165//175 133//132
f 129//133 161//166 192//176 160//134
f 148//135 180//179 179//177 147//129
f 135//136 167//180 166//178 134//131
f 149//137 181//181 180//179 148//135
f 136//138 168//182 167//180 135//136
f 150//139 182//183 181//181 149//137
f 137//140 169//184 168//182 136//138
f 151//141 183//185 182//183 150//139
f 138//142 170//186 169//184 137//140
f 152//143 184//187 183//185 151//141
f 139//144 171//188 170//186 138//142
f 153//145 185//189 184//187 152//143
f 140//146 172//190 171//188 139//144
f 154//147 186//191 185//189 153//145
f 141//148 173//192 172//190 140//146
f 155//149 187//162 186//191 154//147
f 142//150 174//164 173//192 141//148
f 164//172 193//193 163//169
f 191//173 193//193 190//170
f 178//174 193//193 177//171
f 165//175 193//193 164//172
f 192//176 193//193 191//173
f 179//177 193//193 178//174
f 166//178 193//193 165//175
f 161//166 193//193 192//176
f 180//179 193//193 179//177
f 167//180 193//193 166//178
f 181//181 193//193 180//179
f 168//182 193//193 167//180
f 182//183 193//193 181//181
f 169//184 193//193 168//182
f 183//185 193//193 182//183
f 170//186 193//193 169//184
f 184//187 193//193 183//185
f 171//188 193//193 170//186
f 185//189 193//193 184//187
f 172//190 193//193 171//188
f 186//191 193//193 185//189
f 173//192 193//193 172//190
f 187//162 193//193 186//191
f 174//164 193//193 173//192
f 188//161 193//193 187//162
f 175//163 193//193 174//164
f 162//165 193//193 161//166
f 189//167 193//193 188//161
f 176//168 193//193 175//163
f 163//169 193//193 162//165
f 190//170 193//193 189//167
f 177//171 193//193 176//168
